<svg width="150" height="36" viewBox="0 0 150 36" fill="none" xmlns="http://www.w3.org/2000/svg">
<path d="M19.1743 5V25.1131C19.1743 29.2649 18.3869 29.9107 13.385 29.9107C8.01245 29.9107 7.13247 29.311 7.13247 25.436V5H0V25.436C0 31.2024 0.972609 33.4167 4.30727 34.8467C6.20617 35.7232 8.47559 36 13.246 36C18.4333 36 20.3322 35.7232 22.3237 34.6622C24.4079 33.5551 25.7973 31.5253 26.0289 29.1265C26.1678 28.1577 26.3068 25.7589 26.3068 24.9286V5H19.1743Z" fill="white"/>
<path d="M61.2158 5H54.1296V19.9464C54.1296 23.2217 54.1296 23.6369 54.3149 27.0967L54.4075 29.4955H54.1296L53.0644 26.9583C51.3507 22.6682 51.2581 22.4375 49.8223 19.2545L43.3846 5H31.4354V35.7693H38.4289V20.869C38.4289 18.5625 38.3363 15.3333 38.151 11.0893H38.4289L39.4015 13.5342C41.1152 18.0089 41.532 19.0238 42.3657 20.869L49.1739 35.7693H61.2158V5Z" fill="white"/>
<path d="M66.3976 35.7693H81.9593C87.8413 35.7693 90.9907 34.247 92.7043 30.6488C93.677 28.5268 93.9085 25.9435 93.9085 17.1324C93.9085 8.55208 90.4349 5 82.0983 5H66.3976V35.7693ZM73.5301 29.6801V11.1815H81.2183C83.6267 11.1815 84.8772 11.6429 85.6182 12.7961C86.4055 13.9494 86.6371 15.7024 86.6371 20.131C86.6371 24.8824 86.4055 26.5893 85.5719 27.881C84.7382 29.1726 83.4877 29.6801 81.033 29.6801H73.5301Z" fill="white"/>
<path d="M104.964 10.8586H119.6V5H97.8319V35.7693H119.785V29.9107H104.964V22.622H118.72V17.5938H104.964V10.8586Z" fill="white"/>
<path d="M124.11 35.7693H131.243V26.5893H138.468C141.293 26.497 142.59 27.881 142.497 30.9717V35.7693H149.722V29.6339C149.768 25.8512 147.962 23.8214 144.303 23.5908V23.3601C149.027 22.2991 150 20.7307 150 14.3185C150 9.75149 148.935 7.39881 146.202 6.06101C144.766 5.32292 142.682 5 139.487 5H124.11V35.7693ZM131.243 20.5461V11.0893H138.653C142.08 11.0893 142.729 11.8274 142.729 15.5179C142.729 19.6235 141.988 20.5461 138.653 20.5461H131.243Z" fill="white"/>
</svg>
